<?xml version="1.0" encoding="UTF-8"?>
<svg id="Layer_2" data-name="Layer 2" xmlns="http://www.w3.org/2000/svg" viewBox="0 0 47 24.76">
  <defs>
    <style>
      .cls-1 {
        fill: #fff;
      }
    </style>
  </defs>
  <g id="Layer_1-2" data-name="Layer 1">
    <g>
      <path class="cls-1" d="M10.92,11.1l4.57-1.66-1.94-4.11c-.52-1.1.55-2.28,1.7-1.87l4.99,1.81,2.12-4.49c.49-1.04,1.98-1.04,2.47,0l2.12,4.49,4.99-1.81c1.15-.42,2.22.76,1.7,1.87l-1.94,4.11,4.57,1.66c1.2.44,1.2,2.13,0,2.57l-4.57,1.66,1.94,4.11c.52,1.1-.55,2.28-1.7,1.87l-4.99-1.81-2.12,4.49c-.49,1.04-1.98,1.04-2.47,0l-2.12-4.49-4.99,1.81c-1.15.42-2.22-.76-1.7-1.87l1.94-4.11-4.57-1.66c-1.2-.44-1.2-2.13,0-2.57Z"/>
      <ellipse class="cls-1" cx="23.5" cy="12.51" rx="23.5" ry="4.81"/>
    </g>
  </g>
</svg>